# xmcd
#
# Track frame offsets: 
#        150
#        33185
#        46135
#        54322
#        93815
#        118512
#        148850
#
# Disc length: 2582 seconds
#
# Revision: 3
# Processed by: cddbd v1.5.2PL0 Copyright (c) Steve Scherf et al.
# Submitted via: ExactAudioCopyFreeDBPlugin 1.0
#
DISCID=510a1407
DTITLE=Aretha Franklin - Amazing Grace - Disc 2
DYEAR=1972
DGENRE=Gospel
TTITLE0=Precious memories
TTITLE1=Climbing higher mountains
TTITLE2=Remarks by Reverend C. L. Franklin
TTITLE3=God will take care of you
TTITLE4=Wholy holy
TTITLE5=You'll never walk alone
TTITLE6=Never grow old
EXTD=
EXTT0=
EXTT1=
EXTT2=
EXTT3=
EXTT4=
EXTT5=
EXTT6=
PLAYORDER=
